<svg width="59" height="32" viewBox="0 0 59 32" fill="none" xmlns="http://www.w3.org/2000/svg">
<path fill-rule="evenodd" clip-rule="evenodd" d="M20.6737 0.284546C20.2406 0.096844 19.7763 0.000146824 19.3075 0C18.8386 0.000146824 18.3744 0.096844 17.9413 0.284546C17.5082 0.472248 17.1148 0.747267 16.7836 1.09391C16.4524 1.44055 16.1898 1.852 16.0109 2.30473C15.8319 2.75744 15.7402 3.24256 15.7409 3.73233C15.7409 4.72043 16.1167 5.66805 16.7855 6.36674C17.4544 7.06543 18.3616 7.45791 19.3075 7.45791C20.2534 7.45791 21.1606 7.06543 21.8295 6.36674C22.4983 5.66805 22.874 4.72043 22.874 3.73233C22.8747 3.24256 22.783 2.75744 22.6041 2.30473C22.4252 1.852 22.1626 1.44055 21.8314 1.09391C21.5001 0.747267 21.1068 0.472248 20.6737 0.284546ZM22.874 31.9956V8.70131H15.7409V31.9956H22.874ZM5.13249 19.7212V8.71924H12.3847V20.7975C12.3847 29.3261 6.61256 31.9967 1.6636 31.9967C1.10759 31.9973 0.552046 31.9629 0 31.8936L0.654693 24.6274C0.868017 24.659 1.08322 24.6747 1.29867 24.6744C1.31489 24.6744 1.33416 24.6747 1.35629 24.675C2.0088 24.6828 5.13249 24.7203 5.13249 19.7212ZM53.8728 31.9966V20.9981C53.8728 15.999 56.9966 16.0365 57.6491 16.0443C57.6712 16.0446 57.6904 16.0448 57.7067 16.0448C57.9203 16.0448 58.1338 16.0606 58.3453 16.0919L59 8.82566C58.4479 8.75642 57.8924 8.72195 57.3364 8.72254C52.3874 8.72254 46.6153 11.3931 46.6153 19.9218V32L53.8728 31.9966ZM38.0279 18.2557C39.2718 18.6729 40.9204 19.4475 42.0334 20.9151C42.7654 21.8805 43.2645 23.144 43.2602 24.8055C43.2602 29.3283 39.5498 31.9989 34.56 31.9989C30.167 31.9989 26.8367 29.9494 26.1583 25.5948L31.7566 23.9468C31.7666 23.9733 31.7769 24.0008 31.7874 24.029C32.0842 24.823 32.6094 26.2283 34.4399 26.2283C35.4294 26.2283 36.2537 25.754 36.2537 24.8067C36.2537 24.3335 36.0069 23.7304 34.8928 23.3851L34.3615 23.1798L31.7609 22.1798C29.8515 21.4835 28.5271 20.4498 27.7124 19.193C27.0105 18.1178 26.6885 16.8778 26.6885 15.5459C26.6885 11.2385 30.4407 8.74047 34.7704 8.74047C38.8994 8.74047 41.9153 11.1476 42.6881 14.7813L37.1832 16.4025H37.1617C36.7088 14.6792 35.6773 14.4203 35.0591 14.4203C33.9461 14.4203 33.5748 15.1827 33.5748 15.6693C33.5748 16.1558 33.8302 16.7186 34.8938 17.0718C34.9593 17.0931 35.0291 17.1144 35.101 17.1346L38.0279 18.2557Z" fill="white"/>
</svg>
