<svg width="40" height="40" viewBox="0 0 40 40" fill="none" xmlns="http://www.w3.org/2000/svg">
<path opacity="0.4" d="M30.5495 9.4526L10.9828 29.0193C10.2495 29.7526 9.01615 29.6526 8.41615 28.7859C6.34948 25.7692 5.13281 22.2026 5.13281 18.5359V11.2193C5.13281 9.8526 6.16615 8.3026 7.43282 7.78594L16.7162 3.98594C18.8162 3.11927 21.1495 3.11927 23.2495 3.98594L29.9828 6.73593C31.0995 7.18593 31.3828 8.61927 30.5495 9.4526Z" fill="#2353F5"/>
<path d="M32.1173 11.7308C33.2007 10.8141 34.8507 11.5974 34.8507 13.0141V18.5307C34.8507 26.6807 28.934 34.3141 20.8507 36.5474C20.3007 36.6974 19.7007 36.6974 19.134 36.5474C16.7674 35.8807 14.5673 34.7641 12.684 33.2974C11.884 32.6808 11.8007 31.5141 12.5007 30.7974C16.134 27.0808 26.7673 16.2474 32.1173 11.7308Z" fill="#2353F5"/>
</svg>
