<svg width="40" height="40" viewBox="0 0 40 40" fill="none" xmlns="http://www.w3.org/2000/svg">
<path opacity="0.6" d="M23.334 26.6656C23.334 29.6156 22.0507 32.2823 20.0007 34.099C18.234 35.699 15.9007 36.6656 13.334 36.6656C7.81732 36.6656 3.33398 32.1823 3.33398 26.6656C3.33398 22.0656 6.46732 18.1656 10.7007 17.0156C11.8507 19.9156 14.3173 22.149 17.3673 22.9823C18.2007 23.2156 19.084 23.3323 20.0007 23.3323C20.9173 23.3323 21.8006 23.2156 22.634 22.9823C23.084 24.1156 23.334 25.3656 23.334 26.6656Z" fill="#2353F5"/>
<path d="M30 13.3359C30 14.6359 29.75 15.8859 29.3 17.0193C28.15 19.9193 25.6833 22.1526 22.6333 22.9859C21.8 23.2193 20.9167 23.3359 20 23.3359C19.0833 23.3359 18.2 23.2193 17.3667 22.9859C14.3167 22.1526 11.85 19.9193 10.7 17.0193C10.25 15.8859 10 14.6359 10 13.3359C10 7.81927 14.4833 3.33594 20 3.33594C25.5167 3.33594 30 7.81927 30 13.3359Z" fill="#2353F5"/>
<path opacity="0.4" d="M36.6667 26.6656C36.6667 32.1823 32.1833 36.6656 26.6667 36.6656C24.1 36.6656 21.7667 35.699 20 34.099C22.05 32.2823 23.3333 29.6156 23.3333 26.6656C23.3333 25.3656 23.0833 24.1156 22.6333 22.9823C25.6833 22.149 28.15 19.9156 29.3 17.0156C33.5333 18.1656 36.6667 22.0656 36.6667 26.6656Z" fill="#2353F5"/>
</svg>
