<svg width="40" height="40" viewBox="0 0 40 40" fill="none" xmlns="http://www.w3.org/2000/svg">
<path d="M34.2335 31.7354C33.9835 31.9854 33.6668 32.1021 33.3501 32.1021C33.0335 32.1021 32.7168 31.9854 32.4668 31.7354L24.2168 23.4854L25.1001 22.6021L25.9835 21.7188L34.2335 29.9687C34.7168 30.4521 34.7168 31.2521 34.2335 31.7354Z" fill="#2353F5"/>
<path opacity="0.4" d="M10.7829 15.4662L20.4496 25.1328C21.0996 25.7828 21.0996 26.8328 20.4496 27.4828L18.9496 28.9995C17.5996 30.3328 15.4663 30.3328 14.1329 28.9995L6.89961 21.7662C5.58294 20.4495 5.58294 18.2995 6.89961 16.9662L8.41628 15.4495C9.06628 14.8162 10.1329 14.8162 10.7829 15.4662Z" fill="#2353F5"/>
<path d="M30.9838 16.9818L24.6338 23.3151C23.9672 23.9818 22.9005 23.9818 22.2338 23.3151L12.6172 13.6984C11.9505 13.0318 11.9505 11.9651 12.6172 11.2984L18.9672 4.94844C20.2839 3.63177 22.4338 3.63177 23.7672 4.94844L31.0005 12.1818C32.3005 13.4984 32.3005 15.6318 30.9838 16.9818Z" fill="#2353F5"/>
<path d="M13.334 36.25H3.33398C2.65065 36.25 2.08398 35.6833 2.08398 35C2.08398 34.3167 2.65065 33.75 3.33398 33.75H13.334C14.0173 33.75 14.584 34.3167 14.584 35C14.584 35.6833 14.0173 36.25 13.334 36.25Z" fill="#2353F5"/>
</svg>
