<svg width="40" height="40" viewBox="0 0 40 40" fill="none" xmlns="http://www.w3.org/2000/svg">
<path opacity="0.4" d="M36.0828 16.7152C35.4328 15.7819 34.2828 15.2486 32.9661 15.2486H26.1328C25.6828 15.2486 25.2661 15.0652 24.9828 14.7319C24.6828 14.3986 24.5661 13.9319 24.6328 13.4486L25.4828 7.98191C25.8495 6.34857 24.7661 4.51524 23.1328 3.96524C21.6161 3.39858 19.8328 4.16524 19.1161 5.24858L12.0828 15.6986L11.8828 16.0319V30.7652L12.1328 31.0152L17.4161 35.0986C18.1161 35.7986 19.6995 36.1819 20.8161 36.1819H27.3161C29.5495 36.1819 31.7995 34.4986 32.2995 32.4486L36.3995 19.9652C36.8328 18.7819 36.7161 17.6319 36.0828 16.7152Z" fill="#2353F5"/>
<path d="M8.68398 10.6328H6.96732C4.38398 10.6328 3.33398 11.6328 3.33398 14.0995V30.8661C3.33398 33.3328 4.38398 34.3328 6.96732 34.3328H8.68398C11.2673 34.3328 12.3173 33.3328 12.3173 30.8661V14.0995C12.3173 11.6328 11.2673 10.6328 8.68398 10.6328Z" fill="#2353F5"/>
</svg>
