<svg width="40" height="40" viewBox="0 0 40 40" fill="none" xmlns="http://www.w3.org/2000/svg">
<path opacity="0.4" d="M35.4168 9.61928V15.0026C35.4168 18.8193 34.2001 20.0359 30.3835 20.0359H30.2168V17.3026C30.2168 12.1026 27.9001 9.78593 22.7001 9.78593H19.9668V9.61928C19.9668 5.80261 21.1835 4.58594 25.0001 4.58594H30.3835C34.2001 4.58594 35.4168 5.80261 35.4168 9.61928Z" fill="#2353F5"/>
<path d="M27.7165 17.2979V22.6979C27.7165 26.4979 26.4999 27.7146 22.6999 27.7146H17.2999C13.4999 27.7146 12.2832 26.4979 12.2832 22.6979V17.2979C12.2832 13.4979 13.4999 12.2812 17.2999 12.2812H22.6999C26.4999 12.2812 27.7165 13.4979 27.7165 17.2979Z" fill="#2353F5"/>
<path opacity="0.4" d="M20.034 30.2188V30.3854C20.034 34.2021 18.8173 35.4188 15.0007 35.4188H9.61732C5.80065 35.4188 4.58398 34.2021 4.58398 30.3854V25.0021C4.58398 21.1854 5.80065 19.9688 9.61732 19.9688H9.78398V22.7021C9.78398 27.9021 12.1007 30.2188 17.3007 30.2188H20.034Z" fill="#2353F5"/>
</svg>
