<svg width="174" height="170" viewBox="0 0 174 170" fill="none" xmlns="http://www.w3.org/2000/svg">
<g filter="url(#filter0_d_1703_94196)">
<path d="M163.925 10.2686C165.061 10.1021 165.952 11.2281 165.528 12.2953L157.659 32.1048C157.155 33.3743 155.351 33.3547 154.875 32.0745L151.441 22.85C151.334 22.5637 151.142 22.3171 150.891 22.1434L142.114 16.0749C141 15.3047 141.406 13.5681 142.746 13.3718L163.925 10.2686Z" fill="#4D65E5"/>
<path d="M158.699 32.5178L166.568 12.7084C167.31 10.8406 165.751 8.87016 163.763 9.16151L142.584 12.2647C140.239 12.6083 139.528 15.6473 141.477 16.9952L150.255 23.0637C150.317 23.1071 150.365 23.1688 150.392 23.2403L153.826 32.4649C154.66 34.7052 157.816 34.7395 158.699 32.5178Z" stroke="white" stroke-width="2.23772"/>
</g>
<defs>
<filter id="filter0_d_1703_94196" x="133.261" y="3.54018" width="40.583" height="39.2001" filterUnits="userSpaceOnUse" color-interpolation-filters="sRGB">
<feFlood flood-opacity="0" result="BackgroundImageFix"/>
<feColorMatrix in="SourceAlpha" type="matrix" values="0 0 0 0 0 0 0 0 0 0 0 0 0 0 0 0 0 0 127 0" result="hardAlpha"/>
<feOffset dy="1.49181"/>
<feGaussianBlur stdDeviation="2.98363"/>
<feColorMatrix type="matrix" values="0 0 0 0 0.0313726 0 0 0 0 0.0313726 0 0 0 0 0.203922 0 0 0 0.15 0"/>
<feBlend mode="normal" in2="BackgroundImageFix" result="effect1_dropShadow_1703_94196"/>
<feBlend mode="normal" in="SourceGraphic" in2="effect1_dropShadow_1703_94196" result="shape"/>
</filter>
</defs>
</svg>
