<svg width="844" height="524" viewBox="0 0 844 524" fill="none" xmlns="http://www.w3.org/2000/svg">
<g opacity="0.6">
<circle cx="562.152" cy="-27.8633" r="562.152" fill="url(#paint0_linear_1707_86821)" fill-opacity="0.02"/>
<circle cx="562.143" cy="-27.8649" r="418.916" fill="url(#paint1_linear_1707_86821)" fill-opacity="0.05"/>
<circle cx="562.154" cy="-27.869" r="271.756" fill="url(#paint2_linear_1707_86821)" fill-opacity="0.1"/>
<circle cx="562.151" cy="-27.8566" r="170.706" fill="url(#paint3_linear_1707_86821)" fill-opacity="0.1"/>
<circle cx="763.273" cy="152.655" r="4.90534" fill="#909FED"/>
<circle cx="421.648" cy="68.1866" r="4.90534" fill="#909FED"/>
<circle cx="534.748" cy="240.303" r="22.0682" fill="white" fill-opacity="0.1"/>
<circle cx="534.752" cy="240.307" r="31.6112" fill="white" fill-opacity="0.1"/>
<circle cx="534.754" cy="240.309" r="9.543" fill="white"/>
<circle cx="833.473" cy="413.645" r="91.8011" fill="white" fill-opacity="0.1"/>
<circle cx="833.475" cy="413.639" r="131.499" fill="white" fill-opacity="0.1"/>
<circle cx="833.477" cy="413.641" r="213.376" fill="white" fill-opacity="0.05"/>
<circle cx="833.479" cy="413.643" r="39.6978" fill="white"/>
<circle cx="143.345" cy="-0.646744" r="36.7204" fill="white" fill-opacity="0.1"/>
<circle cx="143.357" cy="-0.650452" r="52.5995" fill="white" fill-opacity="0.1"/>
<circle cx="143.35" cy="-0.649788" r="85.3502" fill="white" fill-opacity="0.05"/>
<circle cx="143.348" cy="-0.652142" r="15.8791" fill="white"/>
<circle cx="728.219" cy="12.289" r="43.8358" fill="white" fill-opacity="0.1"/>
<circle cx="728.113" cy="12.183" r="25.8158" fill="white" fill-opacity="0.1"/>
<circle cx="728.109" cy="12.187" r="13.1713" fill="white"/>
</g>
<defs>
<linearGradient id="paint0_linear_1707_86821" x1="185.755" y1="-440.923" x2="1190.3" y2="710.267" gradientUnits="userSpaceOnUse">
<stop stop-color="white"/>
<stop offset="1" stop-color="white" stop-opacity="0"/>
</linearGradient>
<linearGradient id="paint1_linear_1707_86821" x1="281.651" y1="-335.677" x2="1030.24" y2="522.19" gradientUnits="userSpaceOnUse">
<stop stop-color="white"/>
<stop offset="1" stop-color="white" stop-opacity="0"/>
</linearGradient>
<linearGradient id="paint2_linear_1707_86821" x1="380.196" y1="-227.551" x2="865.812" y2="328.958" gradientUnits="userSpaceOnUse">
<stop stop-color="white"/>
<stop offset="1" stop-color="white" stop-opacity="0"/>
</linearGradient>
<linearGradient id="paint3_linear_1707_86821" x1="447.852" y1="-153.288" x2="752.897" y2="196.288" gradientUnits="userSpaceOnUse">
<stop stop-color="white"/>
<stop offset="1" stop-color="white" stop-opacity="0"/>
</linearGradient>
</defs>
</svg>
