<svg width="174" height="170" viewBox="0 0 174 170" fill="none" xmlns="http://www.w3.org/2000/svg">
<g filter="url(#filter0_d_1803_96872)">
<path d="M163.925 10.2665C165.061 10.1 165.952 11.226 165.528 12.2932L157.659 32.1027C157.155 33.3722 155.351 33.3526 154.875 32.0724L151.441 22.8479C151.334 22.5616 151.142 22.315 150.891 22.1413L142.114 16.0728C141 15.3026 141.406 13.566 142.746 13.3697L163.925 10.2665Z" fill="#837FAC"/>
<path d="M158.699 32.5179L166.568 12.7085C167.31 10.8407 165.751 8.87028 163.763 9.16163L142.584 12.2648C140.239 12.6084 139.528 15.6474 141.477 16.9953L150.255 23.0638C150.317 23.1072 150.365 23.1689 150.392 23.2404L153.826 32.465C154.66 34.7053 157.816 34.7396 158.699 32.5179Z" fill="#837FAC" stroke="white" stroke-width="2.23772"/>
</g>
<defs>
<filter id="filter0_d_1803_96872" x="133.262" y="3.54018" width="40.5815" height="39.2001" filterUnits="userSpaceOnUse" color-interpolation-filters="sRGB">
<feFlood flood-opacity="0" result="BackgroundImageFix"/>
<feColorMatrix in="SourceAlpha" type="matrix" values="0 0 0 0 0 0 0 0 0 0 0 0 0 0 0 0 0 0 127 0" result="hardAlpha"/>
<feOffset dy="1.49181"/>
<feGaussianBlur stdDeviation="2.98363"/>
<feColorMatrix type="matrix" values="0 0 0 0 0.0313726 0 0 0 0 0.0313726 0 0 0 0 0.203922 0 0 0 0.15 0"/>
<feBlend mode="normal" in2="BackgroundImageFix" result="effect1_dropShadow_1803_96872"/>
<feBlend mode="normal" in="SourceGraphic" in2="effect1_dropShadow_1803_96872" result="shape"/>
</filter>
</defs>
</svg>
