<svg width="14" height="14" viewBox="0 0 14 14" fill="none" xmlns="http://www.w3.org/2000/svg">
<rect x="4" y="3" width="5" height="9" fill="#2454F6"/>
<path d="M7.00065 10.3359C7.18954 10.3359 7.34798 10.2719 7.47598 10.1439C7.60398 10.0159 7.66776 9.85772 7.66732 9.66927V6.98594C7.66732 6.79705 7.60332 6.64149 7.47532 6.51927C7.34732 6.39705 7.1891 6.33594 7.00065 6.33594C6.81176 6.33594 6.65332 6.39994 6.52532 6.52794C6.39732 6.65594 6.33354 6.81416 6.33398 7.0026V9.68594C6.33398 9.87483 6.39798 10.0304 6.52598 10.1526C6.65398 10.2748 6.81221 10.3359 7.00065 10.3359ZM7.00065 5.0026C7.18954 5.0026 7.34798 4.9386 7.47598 4.8106C7.60398 4.6826 7.66776 4.52438 7.66732 4.33594C7.66732 4.14705 7.60332 3.9886 7.47532 3.8606C7.34732 3.7326 7.1891 3.66883 7.00065 3.66927C6.81176 3.66927 6.65332 3.73327 6.52532 3.86127C6.39732 3.98927 6.33354 4.14749 6.33398 4.33594C6.33398 4.52483 6.39798 4.68327 6.52598 4.81127C6.65398 4.93927 6.81221 5.00305 7.00065 5.0026ZM7.00065 13.6693C6.07843 13.6693 5.21176 13.4942 4.40065 13.1439C3.58954 12.7937 2.88398 12.3188 2.28398 11.7193C1.68398 11.1193 1.2091 10.4137 0.859318 9.6026C0.50954 8.79149 0.334429 7.92483 0.333984 7.0026C0.333984 6.08038 0.509096 5.21372 0.859318 4.4026C1.20954 3.59149 1.68443 2.88594 2.28398 2.28594C2.88398 1.68594 3.58954 1.21105 4.40065 0.861271C5.21176 0.511493 6.07843 0.336382 7.00065 0.335938C7.92287 0.335938 8.78954 0.511049 9.60065 0.861271C10.4118 1.21149 11.1173 1.68638 11.7173 2.28594C12.3173 2.88594 12.7924 3.59149 13.1427 4.4026C13.4929 5.21372 13.6678 6.08038 13.6673 7.0026C13.6673 7.92483 13.4922 8.79149 13.142 9.6026C12.7918 10.4137 12.3169 11.1193 11.7173 11.7193C11.1173 12.3193 10.4118 12.7944 9.60065 13.1446C8.78954 13.4948 7.92287 13.6697 7.00065 13.6693Z" fill="white"/>
</svg>
