<svg width="732" height="524" viewBox="0 0 732 524" fill="none" xmlns="http://www.w3.org/2000/svg">
<g clip-path="url(#clip0_1_64061)">
<circle cx="475.963" cy="277.523" r="315.077" transform="rotate(75 475.963 277.523)" fill="white" fill-opacity="0.04"/>
<circle cx="476.25" cy="277.5" r="473.058" transform="rotate(77.1772 476.25 277.5)" fill="white" fill-opacity="0.04"/>
<circle cx="476.55" cy="277.802" r="109.638" fill="url(#paint0_linear_1_64061)" fill-opacity="0.05"/>
<circle cx="476.551" cy="277.805" r="84.2245" fill="url(#paint1_linear_1_64061)" fill-opacity="0.1"/>
<circle cx="476.553" cy="277.801" r="62.7889" fill="url(#paint2_linear_1_64061)" fill-opacity="0.3"/>
<rect x="432.818" y="234.072" width="87.4636" height="87.4636" rx="43.7318" fill="url(#paint3_linear_1_64061)"/>
<g clip-path="url(#clip1_1_64061)">
<path fill-rule="evenodd" clip-rule="evenodd" d="M470.266 262.526C469.927 262.377 469.563 262.301 469.196 262.301C468.829 262.301 468.466 262.377 468.127 262.526C467.788 262.674 467.48 262.892 467.221 263.166C466.962 263.44 466.756 263.765 466.616 264.123C466.476 264.481 466.404 264.865 466.405 265.252C466.405 266.034 466.699 266.783 467.222 267.335C467.746 267.888 468.456 268.198 469.196 268.198C469.937 268.198 470.647 267.888 471.17 267.335C471.694 266.783 471.988 266.034 471.988 265.252C471.989 264.865 471.917 264.481 471.777 264.123C471.637 263.765 471.431 263.44 471.172 263.166C470.913 262.892 470.605 262.674 470.266 262.526ZM471.988 287.602V269.181H466.405V287.602H471.988ZM458.101 277.896V269.196H463.778V278.747C463.778 285.491 459.26 287.603 455.386 287.603C454.951 287.603 454.516 287.576 454.084 287.521L454.596 281.775C454.763 281.8 454.932 281.813 455.1 281.813C455.113 281.813 455.128 281.813 455.146 281.813C455.656 281.819 458.101 281.849 458.101 277.896ZM496.252 287.603V278.905C496.252 274.952 498.697 274.982 499.207 274.988C499.225 274.988 499.24 274.988 499.253 274.988C499.42 274.988 499.587 275.001 499.752 275.026L500.265 269.28C499.833 269.225 499.398 269.198 498.963 269.198C495.089 269.198 490.571 271.31 490.571 278.054V287.605L496.252 287.603ZM483.849 276.737C484.823 277.067 486.113 277.679 486.985 278.84C487.558 279.603 487.948 280.602 487.945 281.916C487.945 285.493 485.041 287.604 481.135 287.604C477.697 287.604 475.09 285.984 474.559 282.54L478.941 281.237C478.949 281.258 478.957 281.28 478.965 281.302C479.197 281.93 479.608 283.041 481.041 283.041C481.816 283.041 482.461 282.666 482.461 281.917C482.461 281.543 482.267 281.066 481.395 280.793L480.98 280.631L478.944 279.84C477.45 279.289 476.413 278.472 475.775 277.478C475.226 276.628 474.974 275.647 474.974 274.594C474.974 271.188 477.911 269.212 481.3 269.212C484.532 269.212 486.892 271.116 487.497 273.989L483.188 275.271H483.171C482.817 273.909 482.01 273.704 481.526 273.704C480.654 273.704 480.364 274.307 480.364 274.692C480.364 275.076 480.564 275.521 481.396 275.801C481.448 275.817 481.502 275.834 481.558 275.85L483.849 276.737Z" fill="#4B5DBC"/>
</g>
<circle cx="476.593" cy="277.843" r="192.165" fill="white" fill-opacity="0.04"/>
<circle cx="539.318" cy="100.6" r="24.297" fill="white" fill-opacity="0.1"/>
<circle cx="539.323" cy="100.599" r="17.0596" fill="white" fill-opacity="0.1"/>
<circle cx="539.318" cy="100.599" r="8.78826" fill="white"/>
<circle cx="668.696" cy="261.696" r="35.6962" fill="white" fill-opacity="0.1"/>
<circle cx="668.704" cy="261.692" r="25.0633" fill="white" fill-opacity="0.1"/>
<circle cx="668.7" cy="261.695" r="12.9114" fill="white"/>
<circle cx="503.796" cy="467.798" r="16.7978" fill="white" fill-opacity="0.1"/>
<circle cx="503.792" cy="467.796" r="11.7942" fill="white" fill-opacity="0.1"/>
<circle cx="503.793" cy="467.797" r="6.0758" fill="white"/>
<circle cx="240.17" cy="69.1696" r="5.16957" fill="#909FED"/>
</g>
<defs>
<linearGradient id="paint0_linear_1_64061" x1="403.14" y1="197.242" x2="599.058" y2="421.761" gradientUnits="userSpaceOnUse">
<stop stop-color="white"/>
<stop offset="1" stop-color="white" stop-opacity="0"/>
</linearGradient>
<linearGradient id="paint1_linear_1_64061" x1="413.697" y1="219.35" x2="533.119" y2="354.487" gradientUnits="userSpaceOnUse">
<stop stop-color="white"/>
<stop offset="1" stop-color="white" stop-opacity="0"/>
</linearGradient>
<linearGradient id="paint2_linear_1_64061" x1="436.655" y1="232.017" x2="517.758" y2="344.514" gradientUnits="userSpaceOnUse">
<stop stop-color="white"/>
<stop offset="1" stop-color="white" stop-opacity="0"/>
</linearGradient>
<linearGradient id="paint3_linear_1_64061" x1="448.61" y1="241.361" x2="523.926" y2="349.476" gradientUnits="userSpaceOnUse">
<stop stop-color="white"/>
<stop offset="1" stop-color="white" stop-opacity="0.5"/>
</linearGradient>
<clipPath id="clip0_1_64061">
<rect width="732" height="524" fill="white"/>
</clipPath>
<clipPath id="clip1_1_64061">
<rect width="46.1808" height="25.3046" fill="white" transform="translate(454.084 262.301)"/>
</clipPath>
</defs>
</svg>
