<svg width="845" height="524" viewBox="0 0 845 524" fill="none" xmlns="http://www.w3.org/2000/svg">
<g opacity="0.6">
<circle cx="562.848" cy="-27.8633" r="562.152" fill="url(#paint0_linear_16_99108)" fill-opacity="0.02"/>
<circle cx="562.838" cy="-27.8649" r="418.916" fill="url(#paint1_linear_16_99108)" fill-opacity="0.05"/>
<circle cx="562.85" cy="-27.8651" r="271.756" fill="url(#paint2_linear_16_99108)" fill-opacity="0.1"/>
<circle cx="562.847" cy="-27.8614" r="170.706" fill="url(#paint3_linear_16_99108)" fill-opacity="0.1"/>
<circle cx="763.968" cy="152.653" r="4.90534" fill="#909FED"/>
<circle cx="422.343" cy="68.1876" r="4.90534" fill="#909FED"/>
<circle cx="535.443" cy="240.303" r="22.0682" fill="white" fill-opacity="0.2"/>
<circle cx="535.447" cy="240.305" r="31.6112" fill="white" fill-opacity="0.1"/>
<circle cx="535.449" cy="240.307" r="9.543" fill="white"/>
<circle cx="834.168" cy="413.64" r="91.8011" fill="white" fill-opacity="0.2"/>
<circle cx="834.171" cy="413.639" r="131.499" fill="white" fill-opacity="0.1"/>
<circle cx="834.172" cy="413.639" r="213.376" fill="white" fill-opacity="0.05"/>
<circle cx="834.174" cy="413.638" r="39.6978" fill="white"/>
<circle cx="243.041" cy="244.351" r="36.7204" fill="white" fill-opacity="0.2"/>
<circle cx="243.053" cy="244.351" r="52.5995" fill="white" fill-opacity="0.1"/>
<circle cx="243.046" cy="244.35" r="85.3502" fill="white" fill-opacity="0.05"/>
<circle cx="243.043" cy="244.35" r="15.8791" fill="white"/>
<circle cx="728.914" cy="12.2841" r="43.8358" fill="white" fill-opacity="0.1"/>
<circle cx="728.808" cy="12.1771" r="25.8158" fill="white" fill-opacity="0.2"/>
<circle cx="728.804" cy="12.1772" r="13.1713" fill="white"/>
</g>
<defs>
<linearGradient id="paint0_linear_16_99108" x1="186.45" y1="-440.923" x2="1190.99" y2="710.267" gradientUnits="userSpaceOnUse">
<stop stop-color="white"/>
<stop offset="1" stop-color="white" stop-opacity="0"/>
</linearGradient>
<linearGradient id="paint1_linear_16_99108" x1="282.346" y1="-335.677" x2="1030.93" y2="522.19" gradientUnits="userSpaceOnUse">
<stop stop-color="white"/>
<stop offset="1" stop-color="white" stop-opacity="0"/>
</linearGradient>
<linearGradient id="paint2_linear_16_99108" x1="380.891" y1="-227.547" x2="866.508" y2="328.962" gradientUnits="userSpaceOnUse">
<stop stop-color="white"/>
<stop offset="1" stop-color="white" stop-opacity="0"/>
</linearGradient>
<linearGradient id="paint3_linear_16_99108" x1="448.548" y1="-153.293" x2="753.592" y2="196.283" gradientUnits="userSpaceOnUse">
<stop stop-color="white"/>
<stop offset="1" stop-color="white" stop-opacity="0"/>
</linearGradient>
</defs>
</svg>
