<svg width="797" height="524" viewBox="0 0 797 524" fill="none" xmlns="http://www.w3.org/2000/svg">
<g clip-path="url(#clip0_25_125346)">
<g opacity="0.6">
<circle cx="515.152" cy="-27.8633" r="562.152" fill="url(#paint0_linear_25_125346)" fill-opacity="0.02"/>
<circle cx="515.143" cy="-27.8649" r="418.916" fill="url(#paint1_linear_25_125346)" fill-opacity="0.05"/>
<circle cx="515.154" cy="-27.8651" r="271.756" fill="url(#paint2_linear_25_125346)" fill-opacity="0.1"/>
<circle cx="515.151" cy="-27.8605" r="170.706" fill="url(#paint3_linear_25_125346)" fill-opacity="0.1"/>
<circle cx="716.273" cy="152.653" r="4.90534" fill="#909FED"/>
<circle cx="374.648" cy="68.1866" r="4.90534" fill="#909FED"/>
<circle cx="487.748" cy="240.303" r="22.0682" fill="white" fill-opacity="0.2"/>
<circle cx="487.752" cy="240.305" r="31.6112" fill="white" fill-opacity="0.1"/>
<circle cx="487.754" cy="240.307" r="9.543" fill="white"/>
<circle cx="786.473" cy="413.641" r="91.8011" fill="white" fill-opacity="0.2"/>
<circle cx="786.475" cy="413.639" r="131.499" fill="white" fill-opacity="0.1"/>
<circle cx="786.477" cy="413.639" r="213.376" fill="white" fill-opacity="0.05"/>
<circle cx="786.479" cy="413.639" r="39.6978" fill="white"/>
<circle cx="96.3454" cy="6.3513" r="36.7204" fill="white" fill-opacity="0.2"/>
<circle cx="96.3574" cy="6.34955" r="52.5995" fill="white" fill-opacity="0.1"/>
<circle cx="96.3502" cy="6.35021" r="85.3502" fill="white" fill-opacity="0.05"/>
<circle cx="96.3479" cy="6.34981" r="15.8791" fill="white"/>
<circle cx="681.219" cy="12.285" r="43.8358" fill="white" fill-opacity="0.1"/>
<circle cx="681.113" cy="12.1791" r="25.8158" fill="white" fill-opacity="0.2"/>
<circle cx="681.109" cy="12.1791" r="13.1713" fill="white"/>
</g>
</g>
<defs>
<linearGradient id="paint0_linear_25_125346" x1="138.755" y1="-440.923" x2="1143.3" y2="710.267" gradientUnits="userSpaceOnUse">
<stop stop-color="white"/>
<stop offset="1" stop-color="white" stop-opacity="0"/>
</linearGradient>
<linearGradient id="paint1_linear_25_125346" x1="234.651" y1="-335.677" x2="983.236" y2="522.19" gradientUnits="userSpaceOnUse">
<stop stop-color="white"/>
<stop offset="1" stop-color="white" stop-opacity="0"/>
</linearGradient>
<linearGradient id="paint2_linear_25_125346" x1="333.196" y1="-227.547" x2="818.812" y2="328.962" gradientUnits="userSpaceOnUse">
<stop stop-color="white"/>
<stop offset="1" stop-color="white" stop-opacity="0"/>
</linearGradient>
<linearGradient id="paint3_linear_25_125346" x1="400.852" y1="-153.292" x2="705.897" y2="196.284" gradientUnits="userSpaceOnUse">
<stop stop-color="white"/>
<stop offset="1" stop-color="white" stop-opacity="0"/>
</linearGradient>
<clipPath id="clip0_25_125346">
<rect width="797" height="524" fill="white"/>
</clipPath>
</defs>
</svg>
