<svg width="400" height="400" viewBox="0 0 400 400" fill="none" xmlns="http://www.w3.org/2000/svg">
<g clip-path="url(#clip0_19_117037)">
<rect width="400" height="400" fill="#2454F6"/>
<circle cx="233.801" cy="263.199" r="8.16" fill="white"/>
<circle opacity="0.2" cx="233.8" cy="263.2" r="16.8" fill="white"/>
<circle cx="350.792" cy="142.6" r="6.12" fill="white"/>
<circle opacity="0.2" cx="350.795" cy="142.6" r="12.6" fill="white"/>
<circle cx="139.002" cy="238" r="4.08" fill="white"/>
<circle opacity="0.2" cx="139.002" cy="238" r="8.4" fill="white"/>
<circle cx="320.197" cy="400" r="6.99429" fill="white"/>
<circle opacity="0.2" cx="320.197" cy="400" r="14.4" fill="white"/>
<circle cx="173.795" cy="289.6" r="9.6" fill="white"/>
<circle opacity="0.2" cx="173.797" cy="289.6" r="30" fill="white"/>
<circle opacity="0.2" cx="173.798" cy="289.599" r="20.4" fill="white"/>
<circle cx="305.799" cy="214" r="15.744" fill="white"/>
<circle opacity="0.2" cx="305.802" cy="213.999" r="49.2" fill="white"/>
<circle opacity="0.2" cx="305.808" cy="213.997" r="33.456" fill="white"/>
<circle opacity="0.2" cx="422.795" cy="429.399" r="78.6" fill="white"/>
<circle opacity="0.2" cx="422.8" cy="429.399" r="53.448" fill="white"/>
<circle cx="56.7957" cy="185.8" r="5.952" fill="white"/>
<circle opacity="0.2" cx="56.7953" cy="185.801" r="18.6" fill="white"/>
<circle opacity="0.2" cx="56.7964" cy="185.802" r="12.648" fill="white"/>
<circle cx="353.79" cy="310.001" r="14.3446" fill="white"/>
<circle opacity="0.2" cx="353.79" cy="309.999" r="23.9077" fill="white"/>
<circle opacity="0.2" cx="353.791" cy="310" r="33.4708" fill="white"/>
<circle opacity="0.2" cx="353.791" cy="310" r="44.4" fill="white"/>
<circle opacity="0.2" cx="-35.0031" cy="400.001" r="73.2" fill="white"/>
<circle opacity="0.2" cx="-35.0016" cy="400" r="129.6" fill="white"/>
<circle opacity="0.2" cx="-35" cy="400" r="186" fill="white"/>
<circle cx="198.996" cy="202" r="12.7385" fill="white"/>
<circle opacity="0.2" cx="198.994" cy="202" r="19.3846" fill="white"/>
<circle opacity="0.2" cx="198.998" cy="202" r="27.1385" fill="white"/>
<circle opacity="0.2" cx="199" cy="202" r="36" fill="white"/>
<circle cx="234.393" cy="373.001" r="21.6745" fill="white"/>
<circle opacity="0.2" cx="234.4" cy="373.001" r="32.2905" fill="white"/>
<circle opacity="0.2" cx="234.398" cy="373" r="46.4453" fill="white"/>
<circle opacity="0.2" cx="234.397" cy="373" r="60.6" fill="white"/>
<circle opacity="0.2" cx="476.2" cy="203.2" r="97.2" fill="white"/>
<circle cx="179.841" cy="50.8003" r="4.896" fill="white"/>
<circle opacity="0.2" cx="179.838" cy="50.8007" r="10.08" fill="white"/>
<circle cx="251.653" cy="71.3798" r="17.6064" fill="white"/>
<circle opacity="0.2" cx="251.653" cy="71.3794" r="55.02" fill="white"/>
<circle opacity="0.2" cx="251.656" cy="71.3804" r="37.4136" fill="white"/>
<circle cx="320.537" cy="16.779" r="10.404" fill="white"/>
<circle opacity="0.2" cx="320.537" cy="16.7794" r="21.42" fill="white"/>
<circle opacity="0.2" cx="203.353" cy="-12.2002" r="16.7354" fill="white"/>
<circle opacity="0.2" cx="203.351" cy="-12.1994" r="23.4295" fill="white"/>
<circle opacity="0.2" cx="203.353" cy="-12.1993" r="31.08" fill="white"/>
<circle opacity="0.2" cx="-68.8034" cy="50.8001" r="90.72" fill="white"/>
<circle opacity="0.2" cx="-68.8" cy="50.7996" r="130.2" fill="white"/>
<circle cx="119.774" cy="31.9006" r="15.1721" fill="white"/>
<circle opacity="0.2" cx="119.783" cy="31.9002" r="22.6034" fill="white"/>
<circle opacity="0.2" cx="119.777" cy="31.9004" r="32.5117" fill="white"/>
<circle opacity="0.2" cx="119.779" cy="31.9005" r="42.42" fill="white"/>
<circle opacity="0.2" cx="433.101" cy="45.3416" r="46.7733" fill="white"/>
<circle opacity="0.2" cx="433.097" cy="45.3391" r="67.2766" fill="white"/>
<circle opacity="0.2" cx="433.1" cy="45.3405" r="87.78" fill="white"/>
<g filter="url(#filter0_f_19_117037)">
<rect x="-74.0078" y="-62" width="155" height="507" fill="#355EE7"/>
</g>
<g filter="url(#filter1_f_19_117037)">
<rect x="310.992" y="-62" width="155" height="507" fill="#355EE7"/>
</g>
<g filter="url(#filter2_f_19_117037)">
<rect x="-67.0078" y="326" width="780" height="122" fill="#355EE7"/>
</g>
<g filter="url(#filter3_f_19_117037)">
<rect x="-72.0078" y="-48" width="790" height="122" fill="#355EE7"/>
</g>
<g filter="url(#filter4_f_19_117037)">
<path d="M0 0H400V400H0V0Z" fill="#4A71F6"/>
</g>
</g>
<defs>
<filter id="filter0_f_19_117037" x="-158.008" y="-146" width="323" height="675" filterUnits="userSpaceOnUse" color-interpolation-filters="sRGB">
<feFlood flood-opacity="0" result="BackgroundImageFix"/>
<feBlend mode="normal" in="SourceGraphic" in2="BackgroundImageFix" result="shape"/>
<feGaussianBlur stdDeviation="42" result="effect1_foregroundBlur_19_117037"/>
</filter>
<filter id="filter1_f_19_117037" x="226.992" y="-146" width="323" height="675" filterUnits="userSpaceOnUse" color-interpolation-filters="sRGB">
<feFlood flood-opacity="0" result="BackgroundImageFix"/>
<feBlend mode="normal" in="SourceGraphic" in2="BackgroundImageFix" result="shape"/>
<feGaussianBlur stdDeviation="42" result="effect1_foregroundBlur_19_117037"/>
</filter>
<filter id="filter2_f_19_117037" x="-151.008" y="242" width="948" height="290" filterUnits="userSpaceOnUse" color-interpolation-filters="sRGB">
<feFlood flood-opacity="0" result="BackgroundImageFix"/>
<feBlend mode="normal" in="SourceGraphic" in2="BackgroundImageFix" result="shape"/>
<feGaussianBlur stdDeviation="42" result="effect1_foregroundBlur_19_117037"/>
</filter>
<filter id="filter3_f_19_117037" x="-156.008" y="-132" width="958" height="290" filterUnits="userSpaceOnUse" color-interpolation-filters="sRGB">
<feFlood flood-opacity="0" result="BackgroundImageFix"/>
<feBlend mode="normal" in="SourceGraphic" in2="BackgroundImageFix" result="shape"/>
<feGaussianBlur stdDeviation="42" result="effect1_foregroundBlur_19_117037"/>
</filter>
<filter id="filter4_f_19_117037" x="-230" y="-230" width="860" height="860" filterUnits="userSpaceOnUse" color-interpolation-filters="sRGB">
<feFlood flood-opacity="0" result="BackgroundImageFix"/>
<feBlend mode="normal" in="SourceGraphic" in2="BackgroundImageFix" result="shape"/>
<feGaussianBlur stdDeviation="115" result="effect1_foregroundBlur_19_117037"/>
</filter>
<clipPath id="clip0_19_117037">
<rect width="398" height="400" fill="white"/>
</clipPath>
</defs>
</svg>
