<svg width="788" height="522" viewBox="0 0 788 522" fill="none" xmlns="http://www.w3.org/2000/svg">
<g clip-path="url(#clip0_19_117373)">
<circle cx="176.912" cy="357.494" r="34.021" transform="rotate(-16.3364 176.912 357.494)" fill="white" fill-opacity="0.05"/>
<circle cx="242.217" cy="338.355" r="34.021" transform="rotate(-16.3364 242.217 338.355)" fill="white" fill-opacity="0.05"/>
<circle cx="307.498" cy="319.217" r="34.021" transform="rotate(-16.3364 307.498 319.217)" fill="white" fill-opacity="0.05"/>
<circle cx="196.045" cy="422.789" r="34.021" transform="rotate(-16.3364 196.045 422.789)" fill="white" fill-opacity="0.05"/>
<circle cx="261.342" cy="403.65" r="34.021" transform="rotate(-16.3364 261.342 403.65)" fill="white" fill-opacity="0.05"/>
<circle cx="326.623" cy="384.512" r="34.021" transform="rotate(-16.3364 326.623 384.512)" fill="white" fill-opacity="0.05"/>
<circle cx="215.178" cy="488.084" r="34.021" transform="rotate(-16.3364 215.178 488.084)" fill="white" fill-opacity="0.05"/>
<circle cx="280.475" cy="468.945" r="34.021" transform="rotate(-16.3364 280.475 468.945)" fill="white" fill-opacity="0.05"/>
<circle cx="345.764" cy="449.806" r="34.021" transform="rotate(-16.3364 345.764 449.806)" fill="white" fill-opacity="0.05"/>
<circle cx="55.6721" cy="44.7441" r="19.4102" transform="rotate(-16.3364 55.6721 44.7441)" fill="white" fill-opacity="0.2"/>
<circle cx="55.6815" cy="44.7435" r="27.8038" transform="rotate(-16.3364 55.6815 44.7435)" fill="white" fill-opacity="0.1"/>
<circle cx="55.6794" cy="44.7438" r="45.1156" transform="rotate(-16.3364 55.6794 44.7438)" fill="white" fill-opacity="0.05"/>
<circle cx="55.6813" cy="44.7436" r="8.39359" transform="rotate(-16.3364 55.6813 44.7436)" fill="white"/>
<circle cx="142.258" cy="19.3642" r="19.4102" transform="rotate(-16.3364 142.258 19.3642)" fill="white" fill-opacity="0.2"/>
<circle cx="142.267" cy="19.3636" r="27.8038" transform="rotate(-16.3364 142.267 19.3636)" fill="white" fill-opacity="0.1"/>
<circle cx="142.265" cy="19.3639" r="45.1156" transform="rotate(-16.3364 142.265 19.3639)" fill="white" fill-opacity="0.05"/>
<circle cx="142.267" cy="19.3637" r="8.39359" transform="rotate(-16.3364 142.267 19.3637)" fill="white"/>
<circle cx="228.844" cy="-6.01571" r="19.4102" transform="rotate(-16.3364 228.844 -6.01571)" fill="white" fill-opacity="0.2"/>
<circle cx="228.853" cy="-6.01626" r="27.8038" transform="rotate(-16.3364 228.853 -6.01626)" fill="white" fill-opacity="0.1"/>
<circle cx="228.851" cy="-6.01596" r="45.1156" transform="rotate(-16.3364 228.851 -6.01596)" fill="white" fill-opacity="0.05"/>
<circle cx="228.853" cy="-6.01617" r="8.39359" transform="rotate(-16.3364 228.853 -6.01617)" fill="white"/>
<circle cx="81.0471" cy="131.332" r="19.4102" transform="rotate(-16.3364 81.0471 131.332)" fill="white" fill-opacity="0.2"/>
<circle cx="81.0565" cy="131.332" r="27.8038" transform="rotate(-16.3364 81.0565 131.332)" fill="white" fill-opacity="0.1"/>
<circle cx="81.0544" cy="131.332" r="45.1156" transform="rotate(-16.3364 81.0544 131.332)" fill="white" fill-opacity="0.05"/>
<circle cx="81.0563" cy="131.332" r="8.39359" transform="rotate(-16.3364 81.0563 131.332)" fill="white"/>
<circle cx="167.641" cy="105.952" r="19.4102" transform="rotate(-16.3364 167.641 105.952)" fill="white" fill-opacity="0.2"/>
<circle cx="167.65" cy="105.952" r="27.8038" transform="rotate(-16.3364 167.65 105.952)" fill="white" fill-opacity="0.1"/>
<circle cx="167.648" cy="105.952" r="45.1156" transform="rotate(-16.3364 167.648 105.952)" fill="white" fill-opacity="0.05"/>
<circle cx="167.65" cy="105.952" r="8.39359" transform="rotate(-16.3364 167.65 105.952)" fill="white"/>
<circle cx="254.219" cy="80.5727" r="19.4102" transform="rotate(-16.3364 254.219 80.5727)" fill="white" fill-opacity="0.2"/>
<circle cx="254.228" cy="80.5721" r="27.8038" transform="rotate(-16.3364 254.228 80.5721)" fill="white" fill-opacity="0.1"/>
<circle cx="254.226" cy="80.5724" r="45.1156" transform="rotate(-16.3364 254.226 80.5724)" fill="white" fill-opacity="0.05"/>
<circle cx="254.228" cy="80.5722" r="8.39359" transform="rotate(-16.3364 254.228 80.5722)" fill="white"/>
<circle cx="106.422" cy="217.921" r="19.4102" transform="rotate(-16.3364 106.422 217.921)" fill="white" fill-opacity="0.2"/>
<circle cx="106.431" cy="217.92" r="27.8038" transform="rotate(-16.3364 106.431 217.92)" fill="white" fill-opacity="0.1"/>
<circle cx="106.429" cy="217.921" r="45.1156" transform="rotate(-16.3364 106.429 217.921)" fill="white" fill-opacity="0.05"/>
<circle cx="106.431" cy="217.92" r="8.39359" transform="rotate(-16.3364 106.431 217.92)" fill="white"/>
<circle cx="193.024" cy="192.54" r="19.4102" transform="rotate(-16.3364 193.024 192.54)" fill="white" fill-opacity="0.2"/>
<circle cx="193.033" cy="192.54" r="27.8038" transform="rotate(-16.3364 193.033 192.54)" fill="white" fill-opacity="0.1"/>
<circle cx="193.031" cy="192.54" r="45.1156" transform="rotate(-16.3364 193.031 192.54)" fill="white" fill-opacity="0.05"/>
<circle cx="193.033" cy="192.54" r="8.39359" transform="rotate(-16.3364 193.033 192.54)" fill="white"/>
<circle cx="279.602" cy="167.161" r="19.4102" transform="rotate(-16.3364 279.602 167.161)" fill="white" fill-opacity="0.2"/>
<circle cx="279.611" cy="167.161" r="27.8038" transform="rotate(-16.3364 279.611 167.161)" fill="white" fill-opacity="0.1"/>
<circle cx="279.609" cy="167.16" r="45.1156" transform="rotate(-16.3364 279.609 167.16)" fill="white" fill-opacity="0.05"/>
<circle cx="279.603" cy="167.161" r="8.39359" transform="rotate(-16.3364 279.603 167.161)" fill="white"/>
<circle cx="451.483" cy="235.901" r="32.0254" transform="rotate(-16.3364 451.483 235.901)" fill="white" fill-opacity="0.2"/>
<circle cx="451.48" cy="235.901" r="45.8743" transform="rotate(-16.3364 451.48 235.901)" fill="white" fill-opacity="0.1"/>
<circle cx="451.487" cy="235.901" r="74.4375" transform="rotate(-16.3364 451.487 235.901)" fill="white" fill-opacity="0.05"/>
<circle cx="451.49" cy="235.901" r="13.8488" transform="rotate(-16.3364 451.49 235.901)" fill="white"/>
<circle cx="594.342" cy="194.026" r="32.0254" transform="rotate(-16.3364 594.342 194.026)" fill="white" fill-opacity="0.2"/>
<circle cx="594.34" cy="194.026" r="45.8743" transform="rotate(-16.3364 594.34 194.026)" fill="white" fill-opacity="0.1"/>
<circle cx="594.346" cy="194.026" r="74.4375" transform="rotate(-16.3364 594.346 194.026)" fill="white" fill-opacity="0.05"/>
<circle cx="594.349" cy="194.026" r="13.8488" transform="rotate(-16.3364 594.349 194.026)" fill="white"/>
<circle cx="737.209" cy="152.151" r="32.0254" transform="rotate(-16.3364 737.209 152.151)" fill="white" fill-opacity="0.2"/>
<circle cx="737.207" cy="152.151" r="45.8743" transform="rotate(-16.3364 737.207 152.151)" fill="white" fill-opacity="0.1"/>
<circle cx="737.213" cy="152.151" r="74.4375" transform="rotate(-16.3364 737.213 152.151)" fill="white" fill-opacity="0.05"/>
<circle cx="737.216" cy="152.151" r="13.8488" transform="rotate(-16.3364 737.216 152.151)" fill="white"/>
<circle cx="493.358" cy="378.765" r="32.0254" transform="rotate(-16.3364 493.358 378.765)" fill="white" fill-opacity="0.2"/>
<circle cx="493.355" cy="378.765" r="45.8743" transform="rotate(-16.3364 493.355 378.765)" fill="white" fill-opacity="0.1"/>
<circle cx="493.362" cy="378.765" r="74.4375" transform="rotate(-16.3364 493.362 378.765)" fill="white" fill-opacity="0.05"/>
<circle cx="493.365" cy="378.765" r="13.8488" transform="rotate(-16.3364 493.365 378.765)" fill="white"/>
<circle cx="636.217" cy="336.891" r="32.0254" transform="rotate(-16.3364 636.217 336.891)" fill="white" fill-opacity="0.2"/>
<circle cx="636.215" cy="336.89" r="45.8743" transform="rotate(-16.3364 636.215 336.89)" fill="white" fill-opacity="0.1"/>
<circle cx="636.221" cy="336.891" r="74.4375" transform="rotate(-16.3364 636.221 336.891)" fill="white" fill-opacity="0.05"/>
<circle cx="636.224" cy="336.89" r="13.8488" transform="rotate(-16.3364 636.224 336.89)" fill="white"/>
<circle cx="779.076" cy="295.015" r="32.0254" transform="rotate(-16.3364 779.076 295.015)" fill="white" fill-opacity="0.2"/>
<circle cx="779.074" cy="295.015" r="45.8743" transform="rotate(-16.3364 779.074 295.015)" fill="white" fill-opacity="0.1"/>
<circle cx="779.081" cy="295.015" r="74.4375" transform="rotate(-16.3364 779.081 295.015)" fill="white" fill-opacity="0.05"/>
<circle cx="779.083" cy="295.014" r="13.8488" transform="rotate(-16.3364 779.083 295.014)" fill="white"/>
<circle cx="535.233" cy="521.631" r="32.0254" transform="rotate(-16.3364 535.233 521.631)" fill="white" fill-opacity="0.2"/>
<circle cx="535.23" cy="521.63" r="45.8743" transform="rotate(-16.3364 535.23 521.63)" fill="white" fill-opacity="0.1"/>
<circle cx="535.237" cy="521.63" r="74.4375" transform="rotate(-16.3364 535.237 521.63)" fill="white" fill-opacity="0.05"/>
<circle cx="535.24" cy="521.631" r="13.8488" transform="rotate(-16.3364 535.24 521.631)" fill="white"/>
<circle cx="678.092" cy="479.754" r="32.0254" transform="rotate(-16.3364 678.092 479.754)" fill="white" fill-opacity="0.2"/>
<circle cx="678.09" cy="479.754" r="45.8743" transform="rotate(-16.3364 678.09 479.754)" fill="white" fill-opacity="0.1"/>
<circle cx="678.096" cy="479.754" r="74.4375" transform="rotate(-16.3364 678.096 479.754)" fill="white" fill-opacity="0.05"/>
<circle cx="678.099" cy="479.754" r="13.8488" transform="rotate(-16.3364 678.099 479.754)" fill="white"/>
<circle cx="820.951" cy="437.88" r="32.0254" transform="rotate(-16.3364 820.951 437.88)" fill="white" fill-opacity="0.2"/>
<circle cx="820.949" cy="437.88" r="45.8743" transform="rotate(-16.3364 820.949 437.88)" fill="white" fill-opacity="0.1"/>
<circle cx="820.956" cy="437.88" r="74.4375" transform="rotate(-16.3364 820.956 437.88)" fill="white" fill-opacity="0.05"/>
</g>
<defs>
<clipPath id="clip0_19_117373">
<rect width="788" height="522" fill="white"/>
</clipPath>
</defs>
</svg>
