<svg width="400" height="400" viewBox="0 0 400 400" fill="none" xmlns="http://www.w3.org/2000/svg">
<g clip-path="url(#clip0_19_117206)">
<g clip-path="url(#clip1_19_117206)">
<rect width="400" height="400" fill="#2454F6"/>
<g opacity="0.1" clip-path="url(#clip2_19_117206)">
<path d="M390.907 226.798C389.917 227.076 388.857 227.106 387.852 226.853C360.66 221.26 338.661 221.818 314.035 228.719C289.533 235.584 267.898 247.92 249.997 265.481C247.477 267.922 243.453 267.849 240.888 265.364C238.447 262.845 238.486 258.697 241.005 256.256C260.52 237.308 283.962 223.799 310.568 216.344C336.926 208.958 361.573 208.325 390.459 214.245C394.003 214.987 396.157 218.387 395.381 221.808C394.891 224.347 393.134 226.174 390.907 226.798V226.798ZM232.027 341.386C230.789 341.733 229.448 341.709 228.126 341.278C224.725 340.096 223.031 336.433 224.214 333.032C231.611 312.274 243.389 294.293 259.281 279.563C292.521 248.628 342.233 234.565 386.831 243.689C408.063 248.017 427.435 257.136 444.506 270.904C447.249 273.072 447.74 277.205 445.448 279.983C443.157 282.76 439.147 283.216 436.37 280.925C420.863 268.453 403.323 260.155 384.225 256.298C343.611 248.059 298.196 260.784 267.936 289.016C253.533 302.394 242.893 318.722 236.125 337.435C235.62 339.445 234.007 340.832 232.027 341.386V341.386ZM351.223 469.079C349.614 469.53 347.832 469.362 346.371 468.436C332.588 460.687 324.83 455.387 312.344 442.736C299.54 429.908 289.884 412.594 284.301 392.67C274.003 355.917 297.043 317.162 335.653 306.344C374.262 295.525 414.086 316.665 424.384 353.418C425.355 356.883 423.396 360.368 419.931 361.339C416.466 362.31 412.98 360.351 412.009 356.886C403.618 326.939 370.924 309.807 339.12 318.719C307.317 327.63 288.284 359.256 296.676 389.203C301.669 407.023 310.241 422.372 321.534 433.621C333.442 445.633 340.586 450.171 352.819 457.153C355.864 458.97 356.939 462.806 355.281 465.94C354.267 467.559 352.831 468.628 351.223 469.079ZM433.535 421.323C418.809 425.45 404.775 425.378 392.087 421.059C370.147 413.727 353.446 396.518 347.413 374.986C346.442 371.521 348.401 368.036 351.866 367.065C355.331 366.094 358.817 368.054 359.788 371.519C364.677 388.967 378.198 402.929 396.139 408.846C406.59 412.324 417.658 412.292 430.033 408.825C433.003 407.993 437.849 406.234 442.556 403.981C445.724 402.426 449.566 403.752 451.155 407.044C452.71 410.211 451.384 414.053 448.093 415.643C441.421 418.98 435.268 420.838 433.535 421.323V421.323ZM415.805 453.785C415.31 453.924 414.657 453.974 414.127 453.988C392.925 454.057 378.01 450.362 360.811 440.9C338.666 428.554 322.723 408.33 315.857 383.828C310.24 363.781 322.74 342.661 343.777 336.766C364.814 330.871 386.469 342.421 392.086 362.468C395.796 375.709 410.322 383.251 424.553 379.263C438.784 375.276 447.276 361.285 443.565 348.044C430.493 301.39 379.664 274.793 330.165 288.663C295.02 298.51 268.324 327.078 262.341 361.454C260.323 372.83 261.143 385.279 264.749 398.149C267.453 407.801 272.585 422.78 285.558 440.499C287.697 443.37 287.093 447.409 284.188 449.424C281.317 451.564 277.243 450.837 275.263 448.055C264.657 433.543 257.179 418.288 252.498 401.582C248.337 386.732 247.403 372.446 249.678 359.129C256.462 319.992 286.692 287.364 326.662 276.164C382.968 260.387 440.926 290.993 455.906 344.452C461.523 364.499 449.023 385.619 427.985 391.514C406.948 397.409 385.294 385.859 379.676 365.812C375.966 352.571 361.441 345.03 347.21 349.017C332.979 353.005 324.487 366.996 328.197 380.237C334.126 401.398 347.842 418.909 366.976 429.563C381.992 437.901 395.056 441.181 413.857 441.118C417.441 441.048 420.268 443.993 420.304 447.453C420.482 450.473 418.404 453.057 415.805 453.785V453.785Z" fill="white"/>
</g>
<g opacity="0.1" clip-path="url(#clip3_19_117206)">
<path d="M164.917 209.538C164.325 209.703 163.693 209.721 163.092 209.571C146.849 206.229 133.708 206.563 118.998 210.685C104.362 214.786 91.4381 222.155 80.7447 232.645C79.2399 234.103 76.8358 234.059 75.3038 232.575C73.8457 231.07 73.8689 228.592 75.3737 227.134C87.031 215.816 101.034 207.746 116.927 203.293C132.672 198.881 147.395 198.503 164.649 202.039C166.767 202.482 168.053 204.513 167.589 206.557C167.297 208.074 166.247 209.165 164.917 209.538V209.538ZM70.0106 277.986C69.2714 278.194 68.4701 278.179 67.6805 277.922C65.6489 277.216 64.6372 275.028 65.3435 272.996C69.7619 260.597 76.7974 249.855 86.2906 241.057C106.146 222.577 135.842 214.177 162.482 219.627C175.165 222.212 186.737 227.66 196.934 235.884C198.573 237.179 198.866 239.648 197.497 241.307C196.128 242.966 193.733 243.239 192.074 241.87C182.811 234.42 172.334 229.463 160.925 227.159C136.665 222.238 109.536 229.839 91.4605 246.703C82.8572 254.695 76.5016 264.448 72.4586 275.626C72.1572 276.827 71.1934 277.655 70.0106 277.986V277.986ZM141.212 354.263C140.251 354.532 139.186 354.432 138.314 353.879C130.081 349.25 125.446 346.084 117.987 338.528C110.339 330.864 104.571 320.522 101.236 308.621C95.0846 286.666 108.848 263.516 131.911 257.054C154.974 250.592 178.763 263.219 184.915 285.174C185.495 287.243 184.324 289.325 182.254 289.905C180.184 290.485 178.102 289.315 177.522 287.245C172.51 269.356 152.98 259.123 133.982 264.446C114.985 269.769 103.616 288.661 108.628 306.55C111.611 317.194 116.731 326.363 123.478 333.083C130.59 340.258 134.858 342.969 142.165 347.14C143.984 348.224 144.626 350.516 143.636 352.388C143.03 353.355 142.173 353.994 141.212 354.263ZM190.381 325.737C181.584 328.201 173.201 328.159 165.622 325.579C152.516 321.199 142.54 310.919 138.936 298.057C138.356 295.987 139.526 293.905 141.596 293.325C143.666 292.746 145.748 293.916 146.328 295.986C149.248 306.409 157.326 314.749 168.042 318.283C174.285 320.361 180.897 320.342 188.289 318.271C190.063 317.773 192.958 316.723 195.769 315.377C197.662 314.448 199.957 315.24 200.906 317.207C201.835 319.099 201.043 321.394 199.077 322.343C195.091 324.337 191.416 325.447 190.381 325.737V325.737ZM179.79 345.128C179.494 345.21 179.104 345.24 178.787 345.249C166.123 345.29 157.213 343.083 146.939 337.431C133.711 330.056 124.187 317.975 120.086 303.339C116.731 291.364 124.198 278.748 136.764 275.227C149.331 271.705 162.266 278.605 165.621 290.58C167.838 298.489 176.514 302.994 185.015 300.612C193.516 298.23 198.589 289.873 196.372 281.963C188.563 254.095 158.201 238.207 128.633 246.492C107.639 252.375 91.6926 269.44 88.1185 289.974C86.9134 296.769 87.4027 304.206 89.5569 311.893C91.1725 317.659 94.2376 326.607 101.987 337.191C103.265 338.906 102.904 341.319 101.169 342.523C99.4541 343.8 97.0204 343.366 95.8373 341.705C89.5018 333.036 85.035 323.923 82.2387 313.944C79.7532 305.074 79.1956 296.54 80.5543 288.585C84.6068 265.207 102.664 245.717 126.541 239.026C160.175 229.602 194.796 247.884 203.744 279.818C207.099 291.793 199.632 304.409 187.066 307.93C174.499 311.451 161.564 304.552 158.208 292.577C155.992 284.668 147.316 280.163 138.815 282.545C130.314 284.927 125.241 293.284 127.457 301.194C130.999 313.834 139.192 324.294 150.622 330.659C159.592 335.639 167.396 337.598 178.626 337.561C180.767 337.519 182.456 339.278 182.477 341.345C182.584 343.149 181.342 344.693 179.79 345.128V345.128Z" fill="white"/>
</g>
<g opacity="0.1" clip-path="url(#clip4_19_117206)">
<path d="M326.159 -41.3406C325.097 -41.043 323.96 -41.0109 322.882 -41.2816C293.7 -47.2842 270.093 -46.6847 243.666 -39.2796C217.371 -31.9118 194.154 -18.6745 174.943 0.17176C172.239 2.79122 167.921 2.71237 165.168 0.0461362C162.549 -2.65731 162.591 -7.109 165.294 -9.72846C186.236 -30.0625 211.392 -44.5592 239.944 -52.5596C268.231 -60.4856 294.68 -61.1653 325.679 -54.8125C329.482 -54.0163 331.794 -50.3673 330.961 -46.6963C330.435 -43.971 328.55 -42.0104 326.159 -41.3406V-41.3406ZM155.659 81.6284C154.331 82.0006 152.891 81.9743 151.473 81.5124C147.823 80.2434 146.006 76.3127 147.275 72.6629C155.212 50.3871 167.852 31.0905 184.906 15.2833C220.577 -17.9146 273.925 -33.0063 321.785 -23.2143C344.571 -18.5705 365.359 -8.78394 383.679 5.99129C386.622 8.3175 387.149 12.7531 384.69 15.7338C382.231 18.7145 377.928 19.204 374.948 16.745C358.307 3.36125 339.484 -5.54382 318.989 -9.68347C275.405 -18.5254 226.668 -4.86884 194.194 25.4279C178.738 39.7846 167.32 57.3067 160.057 77.3884C159.515 79.5453 157.784 81.0331 155.659 81.6284V81.6284ZM283.573 218.661C281.846 219.144 279.934 218.964 278.367 217.971C263.576 209.655 255.25 203.967 241.85 190.391C228.11 176.625 217.747 158.044 211.756 136.663C200.705 97.222 225.431 55.6328 266.864 44.0229C308.298 32.413 351.034 55.0988 362.086 94.5403C363.128 98.2587 361.025 101.999 357.306 103.041C353.588 104.083 349.848 101.98 348.806 98.2614C339.801 66.1239 304.715 47.7396 270.585 57.3029C236.456 66.8662 216.031 100.805 225.036 132.942C230.395 152.065 239.594 168.537 251.713 180.61C264.492 193.5 272.158 198.37 285.286 205.863C288.554 207.812 289.707 211.929 287.928 215.292C286.839 217.029 285.299 218.177 283.573 218.661ZM371.906 167.412C356.103 171.84 341.043 171.763 327.426 167.128C303.881 159.26 285.959 140.793 279.484 117.686C278.442 113.967 280.545 110.227 284.264 109.185C287.982 108.143 291.722 110.246 292.764 113.965C298.011 132.689 312.522 147.672 331.775 154.022C342.989 157.755 354.868 157.72 368.148 153.999C371.335 153.106 376.535 151.219 381.587 148.801C384.986 147.133 389.109 148.556 390.815 152.088C392.483 155.487 391.061 159.61 387.528 161.316C380.368 164.898 373.765 166.891 371.906 167.412V167.412ZM352.879 202.248C352.348 202.397 351.646 202.45 351.078 202.466C328.326 202.54 312.319 198.575 293.862 188.421C270.098 175.172 252.988 153.469 245.62 127.175C239.592 105.661 253.007 82.9963 275.583 76.6704C298.158 70.3445 321.397 82.7389 327.425 104.252C331.407 118.462 346.994 126.555 362.266 122.276C377.538 117.996 386.651 102.982 382.67 88.7726C368.641 38.7071 314.094 10.1641 260.975 25.0486C223.259 35.6166 194.611 66.2739 188.19 103.163C186.025 115.371 186.904 128.732 190.774 142.543C193.677 152.901 199.183 168.975 213.105 187.99C215.4 191.071 214.753 195.406 211.635 197.569C208.555 199.864 204.182 199.084 202.057 196.099C190.675 180.526 182.65 164.155 177.627 146.227C173.162 130.291 172.16 114.96 174.601 100.669C181.881 58.6691 214.322 23.6551 257.216 11.6358C317.64 -5.29527 379.837 27.5492 395.912 84.9186C401.94 106.432 388.526 129.097 365.95 135.423C343.374 141.749 320.136 129.354 314.108 107.841C310.126 93.6312 294.538 85.5383 279.266 89.8176C263.994 94.0969 254.882 109.111 258.863 123.321C265.226 146.029 279.945 164.821 300.479 176.255C316.593 185.203 330.612 188.722 350.788 188.655C354.635 188.579 357.668 191.74 357.706 195.453C357.898 198.693 355.668 201.467 352.879 202.248V202.248Z" fill="white"/>
</g>
<g opacity="0.1" clip-path="url(#clip5_19_117206)">
<path d="M426.088 89.6674C425.55 89.818 424.975 89.8343 424.429 89.6973C409.665 86.6602 397.72 86.9636 384.349 90.7102C371.045 94.438 359.298 101.136 349.579 110.671C348.211 111.996 346.026 111.956 344.633 110.607C343.308 109.24 343.329 106.987 344.697 105.662C355.293 95.3737 368.02 88.039 382.467 83.9911C396.778 79.9809 410.161 79.637 425.844 82.8512C427.769 83.254 428.938 85.1003 428.517 86.9577C428.251 88.3365 427.297 89.3285 426.088 89.6674V89.6674ZM339.822 151.885C339.15 152.073 338.421 152.06 337.704 151.826C335.857 151.184 334.937 149.195 335.58 147.348C339.596 136.078 345.991 126.314 354.62 118.317C372.668 101.52 399.659 93.8842 423.875 98.8385C435.403 101.188 445.921 106.14 455.19 113.615C456.679 114.792 456.946 117.037 455.702 118.545C454.458 120.053 452.281 120.3 450.772 119.056C442.353 112.285 432.829 107.779 422.459 105.685C400.408 101.211 375.749 108.121 359.319 123.449C351.499 130.713 345.722 139.579 342.047 149.739C341.773 150.831 340.897 151.583 339.822 151.885V151.885ZM404.541 221.217C403.667 221.462 402.7 221.37 401.907 220.868C394.423 216.66 390.211 213.783 383.431 206.914C376.479 199.949 371.236 190.548 368.205 179.73C362.613 159.774 375.123 138.732 396.087 132.858C417.05 126.984 438.673 138.462 444.265 158.417C444.792 160.299 443.728 162.191 441.847 162.718C439.965 163.245 438.073 162.181 437.546 160.3C432.989 144.04 415.238 134.738 397.97 139.577C380.701 144.415 370.368 161.587 374.924 177.847C377.635 187.523 382.289 195.857 388.421 201.965C394.886 208.487 398.765 210.951 405.408 214.742C407.061 215.728 407.644 217.811 406.744 219.512C406.193 220.391 405.414 220.972 404.541 221.217ZM449.233 195.287C441.238 197.528 433.618 197.489 426.729 195.144C414.816 191.163 405.748 181.819 402.472 170.128C401.945 168.247 403.009 166.354 404.89 165.827C406.772 165.3 408.664 166.364 409.191 168.245C411.846 177.719 419.188 185.3 428.929 188.513C434.603 190.401 440.613 190.384 447.332 188.501C448.944 188.049 451.576 187.095 454.131 185.871C455.852 185.027 457.937 185.747 458.8 187.534C459.645 189.254 458.925 191.34 457.138 192.203C453.515 194.015 450.174 195.024 449.233 195.287V195.287ZM439.607 212.913C439.338 212.988 438.983 213.015 438.695 213.023C427.184 213.061 419.085 211.054 409.747 205.917C397.723 199.213 389.066 188.233 385.338 174.929C382.288 164.044 389.075 152.577 400.498 149.376C411.92 146.175 423.678 152.446 426.728 163.331C428.742 170.521 436.629 174.615 444.356 172.45C452.083 170.285 456.694 162.689 454.679 155.499C447.581 130.168 419.983 115.727 393.107 123.258C374.025 128.605 359.53 144.116 356.281 162.78C355.186 168.957 355.63 175.717 357.588 182.705C359.057 187.946 361.843 196.078 368.887 205.699C370.048 207.258 369.721 209.451 368.143 210.545C366.585 211.707 364.373 211.312 363.297 209.802C357.538 201.922 353.478 193.639 350.937 184.569C348.677 176.506 348.17 168.749 349.405 161.518C353.089 140.268 369.503 122.552 391.205 116.471C421.777 107.905 453.246 124.523 461.38 153.549C464.43 164.434 457.643 175.902 446.22 179.102C434.798 182.303 423.04 176.032 419.99 165.147C417.975 157.957 410.089 153.863 402.362 156.028C394.635 158.193 390.024 165.79 392.039 172.979C395.258 184.469 402.705 193.977 413.094 199.761C421.247 204.289 428.341 206.069 438.549 206.035C440.495 205.997 442.03 207.596 442.049 209.475C442.146 211.114 441.018 212.518 439.607 212.913V212.913Z" fill="white"/>
</g>
<g opacity="0.1" clip-path="url(#clip6_19_117206)">
<path d="M97.6237 18.1155C97.0965 18.2632 96.5324 18.2791 95.9972 18.1448C81.5165 15.1661 69.8017 15.4636 56.6878 19.1382C43.6398 22.7944 32.1186 29.3631 22.5856 38.7152C21.244 40.015 19.1009 39.9759 17.7351 38.6528C16.4353 37.3113 16.4559 35.1023 17.7975 33.8024C28.1897 23.712 40.6729 16.5184 54.8412 12.5483C68.8778 8.61518 82.0029 8.27789 97.3852 11.4304C99.2727 11.8254 100.42 13.6362 100.006 15.4578C99.7455 16.8102 98.8099 17.7831 97.6237 18.1155V18.1155ZM13.0163 79.1364C12.3573 79.3211 11.6429 79.308 10.9391 79.0788C9.12794 78.4492 8.22602 76.4986 8.8557 74.6875C12.7946 63.6335 19.0667 54.058 27.5297 46.214C45.2307 29.7402 71.7036 22.2512 95.4532 27.1103C106.76 29.4147 117.076 34.2711 126.167 41.603C127.627 42.7573 127.889 44.9584 126.668 46.4375C125.448 47.9166 123.313 48.1596 121.834 46.9393C113.576 40.2979 104.236 35.8789 94.0653 33.8247C72.4379 29.4371 48.2529 36.2139 32.1386 51.248C24.4689 58.3723 18.8029 67.0672 15.1986 77.0324C14.9299 78.1027 14.0707 78.841 13.0163 79.1364V79.1364ZM76.491 147.136C75.6343 147.376 74.6852 147.286 73.9075 146.794C66.5678 142.667 62.4365 139.844 55.7869 133.108C48.9686 126.276 43.8265 117.056 40.8536 106.446C35.3694 86.8744 47.6391 66.2366 68.1996 60.4754C88.7602 54.7143 109.967 65.9716 115.451 85.5437C115.968 87.3889 114.925 89.2449 113.08 89.7619C111.235 90.2789 109.378 89.2354 108.861 87.3902C104.393 71.4426 86.9823 62.3198 70.0462 67.0653C53.1101 71.8109 42.9749 88.6523 47.4435 104.6C50.1025 114.089 54.6671 122.263 60.6813 128.254C67.0223 134.65 70.8267 137.067 77.3412 140.785C78.9626 141.752 79.535 143.795 78.6522 145.464C78.112 146.326 77.3476 146.896 76.491 147.136ZM120.325 121.705C112.483 123.902 105.009 123.864 98.2524 121.564C86.5684 117.66 77.6751 108.496 74.4621 97.0291C73.9451 95.1839 74.9886 93.3279 76.8338 92.8109C78.679 92.2939 80.535 93.3374 81.052 95.1826C83.6556 104.474 90.8563 111.909 100.41 115.06C105.975 116.913 111.87 116.896 118.46 115.049C120.041 114.606 122.622 113.67 125.128 112.47C126.815 111.642 128.861 112.348 129.708 114.101C130.536 115.787 129.83 117.833 128.077 118.68C124.524 120.457 121.247 121.446 120.325 121.705V121.705ZM110.883 138.992C110.619 139.065 110.271 139.092 109.989 139.1C98.6986 139.136 90.7557 137.169 81.5969 132.13C69.8043 125.555 61.314 114.786 57.6578 101.738C54.6665 91.0621 61.3231 79.8152 72.526 76.6761C83.7288 73.537 95.2603 79.6875 98.2517 90.3631C100.227 97.4143 107.963 101.43 115.541 99.3068C123.119 97.1833 127.642 89.7328 125.666 82.6816C118.704 57.8376 91.6367 43.6737 65.277 51.0598C46.5617 56.304 32.3454 71.517 29.1592 89.8228C28.0849 95.8807 28.5211 102.51 30.4415 109.364C31.8818 114.504 34.6143 122.48 41.5227 131.916C42.6618 133.445 42.3406 135.596 40.7934 136.669C39.2647 137.809 37.0951 137.421 36.0404 135.94C30.3924 128.212 26.4103 120.088 23.9175 111.192C21.7016 103.284 21.2046 95.6764 22.4159 88.5851C26.0286 67.7433 42.1266 50.3683 63.412 44.404C93.3961 36.0023 124.26 52.3007 132.237 80.7691C135.229 91.4448 128.572 102.692 117.369 105.831C106.166 108.97 94.6347 102.819 91.6433 92.1438C89.6675 85.0926 81.9324 81.0766 74.354 83.2001C66.7756 85.3236 62.2535 92.7741 64.2293 99.8253C67.3869 111.094 74.6907 120.419 84.8803 126.093C92.8764 130.533 99.8335 132.28 109.845 132.246C111.754 132.209 113.259 133.777 113.278 135.62C113.373 137.228 112.267 138.604 110.883 138.992V138.992Z" fill="white"/>
</g>
<g filter="url(#filter0_f_19_117206)">
<rect x="-74" y="-62" width="155" height="507" fill="#355EE7"/>
</g>
<g filter="url(#filter1_f_19_117206)">
<rect x="311" y="-62" width="155" height="507" fill="#355EE7"/>
</g>
<g filter="url(#filter2_f_19_117206)">
<rect x="-67" y="326" width="780" height="122" fill="#355EE7"/>
</g>
<g filter="url(#filter3_f_19_117206)">
<rect x="-72" y="-48" width="790" height="122" fill="#355EE7"/>
</g>
<g filter="url(#filter4_f_19_117206)">
<path d="M0 0H400V400H0V0Z" fill="#4A71F6"/>
</g>
</g>
</g>
<defs>
<filter id="filter0_f_19_117206" x="-158" y="-146" width="323" height="675" filterUnits="userSpaceOnUse" color-interpolation-filters="sRGB">
<feFlood flood-opacity="0" result="BackgroundImageFix"/>
<feBlend mode="normal" in="SourceGraphic" in2="BackgroundImageFix" result="shape"/>
<feGaussianBlur stdDeviation="42" result="effect1_foregroundBlur_19_117206"/>
</filter>
<filter id="filter1_f_19_117206" x="227" y="-146" width="323" height="675" filterUnits="userSpaceOnUse" color-interpolation-filters="sRGB">
<feFlood flood-opacity="0" result="BackgroundImageFix"/>
<feBlend mode="normal" in="SourceGraphic" in2="BackgroundImageFix" result="shape"/>
<feGaussianBlur stdDeviation="42" result="effect1_foregroundBlur_19_117206"/>
</filter>
<filter id="filter2_f_19_117206" x="-151" y="242" width="948" height="290" filterUnits="userSpaceOnUse" color-interpolation-filters="sRGB">
<feFlood flood-opacity="0" result="BackgroundImageFix"/>
<feBlend mode="normal" in="SourceGraphic" in2="BackgroundImageFix" result="shape"/>
<feGaussianBlur stdDeviation="42" result="effect1_foregroundBlur_19_117206"/>
</filter>
<filter id="filter3_f_19_117206" x="-156" y="-132" width="958" height="290" filterUnits="userSpaceOnUse" color-interpolation-filters="sRGB">
<feFlood flood-opacity="0" result="BackgroundImageFix"/>
<feBlend mode="normal" in="SourceGraphic" in2="BackgroundImageFix" result="shape"/>
<feGaussianBlur stdDeviation="42" result="effect1_foregroundBlur_19_117206"/>
</filter>
<filter id="filter4_f_19_117206" x="-320" y="-320" width="1040" height="1040" filterUnits="userSpaceOnUse" color-interpolation-filters="sRGB">
<feFlood flood-opacity="0" result="BackgroundImageFix"/>
<feBlend mode="normal" in="SourceGraphic" in2="BackgroundImageFix" result="shape"/>
<feGaussianBlur stdDeviation="160" result="effect1_foregroundBlur_19_117206"/>
</filter>
<clipPath id="clip0_19_117206">
<rect width="400" height="400" fill="white"/>
</clipPath>
<clipPath id="clip1_19_117206">
<rect width="400" height="400" fill="white"/>
</clipPath>
<clipPath id="clip2_19_117206">
<rect width="308.436" height="308.436" fill="white" transform="translate(155 233.238) rotate(-15.6532)"/>
</clipPath>
<clipPath id="clip3_19_117206">
<rect width="184.243" height="184.243" fill="white" transform="translate(24 213.385) rotate(-15.6532)"/>
</clipPath>
<clipPath id="clip4_19_117206">
<rect width="330.995" height="330.995" fill="white" transform="translate(73 -34.4297) rotate(-15.6532)"/>
</clipPath>
<clipPath id="clip5_19_117206">
<rect width="167.469" height="167.469" fill="white" transform="translate(298 93.1641) rotate(-15.6532)"/>
</clipPath>
<clipPath id="clip6_19_117206">
<rect width="164.25" height="164.25" fill="white" transform="translate(-28 21.5449) rotate(-15.6532)"/>
</clipPath>
</defs>
</svg>
