<svg width="24" height="24" viewBox="0 0 24 24" fill="none" xmlns="http://www.w3.org/2000/svg">
<path d="M2.9 7.14844C3.15 6.89844 3.446 6.77344 3.788 6.77344C4.13 6.77344 4.42567 6.89844 4.675 7.14844L12 14.4734L19.35 7.12344C19.5833 6.8901 19.875 6.77344 20.225 6.77344C20.575 6.77344 20.875 6.89844 21.125 7.14844C21.375 7.39844 21.5 7.69444 21.5 8.03644C21.5 8.37844 21.375 8.6741 21.125 8.92344L12.7 17.3234C12.6 17.4234 12.4917 17.4944 12.375 17.5364C12.2583 17.5784 12.1333 17.5991 12 17.5984C11.8667 17.5984 11.7417 17.5774 11.625 17.5354C11.5083 17.4934 11.4 17.4228 11.3 17.3234L2.875 8.89844C2.64167 8.6651 2.525 8.37744 2.525 8.03544C2.525 7.69344 2.65 7.39777 2.9 7.14844Z" fill="#0C0830"/>
</svg>
